<?xml version="1.0" encoding="UTF-8" standalone="no"?>
<svg
   version="1.1"
   id="Ebene_1"
   x="0px"
   y="0px"
   width="472.25601"
   height="102.37399"
   viewBox="0 0 472.25599 102.37399"
   enable-background="new 0 0 1258.081 302.875"
   xml:space="preserve"
   sodipodi:docname="logo-hifis.svg"
   inkscape:version="1.2.1 (9c6d41e410, 2022-07-14)"
   xmlns:inkscape="http://www.inkscape.org/namespaces/inkscape"
   xmlns:sodipodi="http://sodipodi.sourceforge.net/DTD/sodipodi-0.dtd"
   xmlns="http://www.w3.org/2000/svg"
   xmlns:svg="http://www.w3.org/2000/svg"
   xmlns:rdf="http://www.w3.org/1999/02/22-rdf-syntax-ns#"
   xmlns:cc="http://creativecommons.org/ns#"
   xmlns:dc="http://purl.org/dc/elements/1.1/"><sodipodi:namedview
   id="namedview61"
   pagecolor="#ffffff"
   bordercolor="#666666"
   borderopacity="1.0"
   inkscape:pageshadow="2"
   inkscape:pageopacity="0.0"
   inkscape:pagecheckerboard="0"
   showgrid="false"
   fit-margin-top="0"
   fit-margin-left="0"
   fit-margin-right="0"
   fit-margin-bottom="0"
   inkscape:zoom="0.64"
   inkscape:cx="531.25"
   inkscape:cy="289.84375"
   inkscape:window-width="1920"
   inkscape:window-height="1006"
   inkscape:window-x="1920"
   inkscape:window-y="0"
   inkscape:window-maximized="1"
   inkscape:current-layer="Ebene_1"
   inkscape:showpageshadow="2"
   inkscape:deskcolor="#d1d1d1" /><metadata
   id="metadata119"><rdf:RDF><cc:Work
       rdf:about=""><dc:format>image/svg+xml</dc:format><dc:type
         rdf:resource="http://purl.org/dc/dcmitype/StillImage" /></cc:Work></rdf:RDF></metadata><defs
   id="defs117" />
<line
   stroke-miterlimit="10"
   x1="35.043991"
   y1="61.58297"
   x2="67.449997"
   y2="76.597969"
   id="line2"
   style="fill:none;stroke:#8cb423;stroke-width:2.4017;stroke-miterlimit:10" />
<line
   stroke-miterlimit="10"
   x1="7.7839985"
   y1="71.882973"
   x2="67.449997"
   y2="76.597969"
   id="line4"
   style="fill:none;stroke:#8cb423;stroke-width:2.4017;stroke-miterlimit:10" />
<g
   id="g16"
   transform="translate(-100.983,-99.673027)">
	<path
   d="m 299.465,141.625 v -40.854 h 19.359 V 201.7 H 299.465 V 160.987 H 264.871 V 201.7 H 245.512 V 100.77 h 19.359 v 40.854 h 34.594 z"
   id="path6"
   style="fill:#005aa0" />
	<path
   d="M 355.735,201.7 H 336.374 V 100.77 h 19.361 z"
   id="path8"
   style="fill:#005aa0" />
	<path
   d="m 438.625,100.771 v 19.359 h -45.979 v 21.495 h 40.144 v 19.362 H 392.646 V 201.7 h -19.362 v -91.393 c 0,-0.854 0.285,-1.708 0.998,-2.277 l 6.264,-6.263 c 0.569,-0.57 1.424,-0.997 2.277,-0.997 h 55.802 z"
   id="path10"
   style="fill:#005aa0" />
	<path
   d="M 475.536,201.7 H 456.175 V 100.77 h 19.361 z"
   id="path12"
   style="fill:#005aa0" />
	<path
   d="m 547.094,201.712 h -28.416 c -4.311,0 -8.363,-1.678 -11.412,-4.727 l -11.346,-11.347 13.691,-13.689 9.457,9.456 c 0.604,0.604 1.426,0.945 2.283,0.945 h 23.07 c 0.855,0 1.676,-0.341 2.283,-0.945 l 6.227,-6.226 c 0.604,-0.607 0.945,-1.428 0.945,-2.285 v -3.351 c 0,-1.446 -0.974,-2.728 -2.366,-3.114 l -41.894,-11.666 c -4.725,-1.314 -8.963,-4.191 -11.93,-8.099 -2.969,-3.906 -4.604,-8.761 -4.604,-13.666 v -6.024 c 0,-4.279 1.701,-8.386 4.727,-11.412 l 10.007,-10.007 c 3.048,-3.047 7.101,-4.725 11.411,-4.725 h 28.416 c 4.311,0 8.365,1.678 11.412,4.725 l 11.346,11.349 -13.689,13.689 -9.457,-9.456 c -0.606,-0.604 -1.428,-0.945 -2.284,-0.945 h -23.069 c -0.857,0 -1.68,0.341 -2.284,0.945 l -6.226,6.227 c -0.606,0.604 -0.945,1.427 -0.945,2.282 v 3.353 c 0,1.443 0.972,2.725 2.365,3.114 l 41.891,11.664 c 4.727,1.316 8.965,4.191 11.934,8.098 2.967,3.909 4.602,8.762 4.602,13.669 v 6.024 c 0,4.31 -1.678,8.362 -4.728,11.412 l -10.005,10.005 c -3.048,3.049 -7.1,4.727 -11.412,4.727 z"
   id="path14"
   style="fill:#005aa0" />
</g>


<line
   stroke-miterlimit="10"
   x1="58.434006"
   y1="31.107979"
   x2="71.617004"
   y2="97.572975"
   id="line80"
   style="fill:none;stroke:#8cb423;stroke-width:2.4017;stroke-miterlimit:10" />
<line
   stroke-miterlimit="10"
   x1="58.434006"
   y1="31.107979"
   x2="28.283998"
   y2="94.029976"
   id="line82"
   style="fill:none;stroke:#8cb423;stroke-width:2.4017;stroke-miterlimit:10" />
<line
   stroke-miterlimit="10"
   x1="28.283998"
   y1="94.029976"
   x2="127.23799"
   y2="50.07798"
   id="line84"
   style="fill:none;stroke:#8cb423;stroke-width:2.4017;stroke-miterlimit:10" />
<line
   stroke-miterlimit="10"
   x1="58.434006"
   y1="31.107979"
   x2="127.23799"
   y2="50.07798"
   id="line86"
   style="fill:none;stroke:#8cb423;stroke-width:2.4017;stroke-miterlimit:10" />
<g
   id="g90"
   transform="translate(-100.983,-99.673027)">
	<path
   d="m 214.644,201.706 h -88.769 c -13.725,0 -24.892,-11.166 -24.892,-24.891 0,-13.726 11.167,-24.892 24.892,-24.892 1.977,0 3.922,0.233 5.821,0.695 3.414,-17.172 18.611,-29.995 36.577,-29.995 3.412,0 6.772,0.461 10.03,1.372 6.854,-13.72 20.711,-22.652 36.236,-23.066 l 0.207,7.727 c -13.656,0.363 -25.726,8.815 -30.751,21.532 l -1.413,3.577 -3.584,-1.397 c -3.431,-1.337 -7.039,-2.015 -10.726,-2.015 -15.593,0 -28.555,12.182 -29.508,27.732 l -0.351,5.719 -5.171,-2.467 c -2.343,-1.117 -4.822,-1.685 -7.369,-1.685 -9.463,0 -17.161,7.698 -17.161,17.162 0,9.463 7.698,17.161 17.161,17.161 h 88.769 v 7.731 z"
   id="path88"
   style="fill:#005aa0" />
</g>
<path
   stroke-miterlimit="10"
   d="m 31.824,94.136973 c -0.076,1.957 -1.722,3.494 -3.678,3.435 -1.954,-0.06 -3.479,-1.692 -3.403,-3.651 0.077,-1.956 1.723,-3.49 3.678,-3.432 1.956,0.06 3.479,1.692 3.403,3.648 z"
   id="path92"
   style="fill:#ffffff;stroke:#005aa0;stroke-width:2.5148;stroke-miterlimit:10" />
<line
   stroke-miterlimit="10"
   x1="113.765"
   y1="4.8009725"
   x2="127.23799"
   y2="50.07798"
   id="line94"
   style="fill:none;stroke:#8cb423;stroke-width:2.4017;stroke-miterlimit:10" />
<line
   stroke-miterlimit="10"
   x1="113.765"
   y1="4.8009725"
   x2="67.449997"
   y2="76.597969"
   id="line96"
   style="fill:none;stroke:#8cb423;stroke-width:2.4017;stroke-miterlimit:10" />
<path
   stroke-miterlimit="10"
   d="m 117.305,4.9069734 c -0.076,1.957 -1.722,3.494 -3.678,3.435 -1.954,-0.06 -3.479,-1.692 -3.403,-3.651 0.077,-1.956 1.723,-3.49 3.678,-3.432 1.956,0.06 3.479,1.693 3.403,3.648 z"
   id="path98"
   style="fill:#ffffff;stroke:#005aa0;stroke-width:2.5148;stroke-miterlimit:10" />
<line
   stroke-miterlimit="10"
   x1="58.434006"
   y1="31.107979"
   x2="112.616"
   y2="97.572975"
   id="line100"
   style="fill:none;stroke:#8cb423;stroke-width:2.4017;stroke-miterlimit:10" />
<line
   stroke-miterlimit="10"
   x1="127.23799"
   y1="50.07798"
   x2="112.616"
   y2="97.572975"
   id="line102"
   style="fill:none;stroke:#8cb423;stroke-width:2.4017;stroke-miterlimit:10" />
<path
   stroke-miterlimit="10"
   d="m 61.975,31.214973 c -0.076,1.957 -1.722,3.494 -3.678,3.435 -1.954,-0.06 -3.479,-1.692 -3.403,-3.651 0.077,-1.956 1.723,-3.49 3.678,-3.432 1.955,0.06 3.478,1.693 3.403,3.648 z"
   id="path104"
   style="fill:#ffffff;stroke:#005aa0;stroke-width:2.5148;stroke-miterlimit:10" />
<path
   stroke-miterlimit="10"
   d="m 130.779,50.183973 c -0.076,1.957 -1.722,3.494 -3.678,3.435 -1.954,-0.06 -3.479,-1.692 -3.403,-3.651 0.077,-1.956 1.723,-3.49 3.678,-3.432 1.955,0.061 3.478,1.693 3.403,3.648 z"
   id="path106"
   style="fill:#ffffff;stroke:#005aa0;stroke-width:2.5148;stroke-miterlimit:10" />
<line
   stroke-miterlimit="10"
   x1="67.449997"
   y1="76.597969"
   x2="112.616"
   y2="97.572975"
   id="line108"
   style="fill:none;stroke:#8cb423;stroke-width:2.4017;stroke-miterlimit:10" />
<path
   stroke-miterlimit="10"
   d="m 70.991,76.704973 c -0.076,1.957 -1.722,3.494 -3.678,3.435 -1.954,-0.06 -3.479,-1.692 -3.403,-3.651 0.077,-1.956 1.723,-3.49 3.678,-3.432 1.955,0.06 3.478,1.693 3.403,3.648 z"
   id="path110"
   style="fill:#ffffff;stroke:#005aa0;stroke-width:2.5148;stroke-miterlimit:10" />
<path
   stroke-miterlimit="10"
   d="m 116.157,97.679973 c -0.076,1.957 -1.722,3.493997 -3.678,3.434997 -1.954,-0.06 -3.479,-1.691997 -3.403,-3.650997 0.077,-1.956 1.723,-3.49 3.678,-3.432 1.955,0.06 3.478,1.692 3.403,3.648 z"
   id="path112"
   style="fill:#ffffff;stroke:#005aa0;stroke-width:2.5148;stroke-miterlimit:10" />
</svg>
