<?xml version="1.0" encoding="UTF-8" standalone="no"?>
<!-- Created with Inkscape (http://www.inkscape.org/) -->

<svg
   width="261.99335mm"
   height="168.26643mm"
   viewBox="0 0 261.99334 168.26643"
   version="1.1"
   id="svg1"
   xml:space="preserve"
   inkscape:version="1.3 (0e150ed6c4, 2023-07-21)"
   sodipodi:docname="summary.svg"
   xmlns:inkscape="http://www.inkscape.org/namespaces/inkscape"
   xmlns:sodipodi="http://sodipodi.sourceforge.net/DTD/sodipodi-0.dtd"
   xmlns="http://www.w3.org/2000/svg"
   xmlns:svg="http://www.w3.org/2000/svg"><sodipodi:namedview
     id="namedview1"
     pagecolor="#ffffff"
     bordercolor="#666666"
     borderopacity="1.0"
     inkscape:showpageshadow="2"
     inkscape:pageopacity="0.0"
     inkscape:pagecheckerboard="0"
     inkscape:deskcolor="#d1d1d1"
     inkscape:document-units="mm"
     inkscape:zoom="0.28976696"
     inkscape:cx="729.89688"
     inkscape:cy="524.55946"
     inkscape:window-width="1920"
     inkscape:window-height="1126"
     inkscape:window-x="1920"
     inkscape:window-y="0"
     inkscape:window-maximized="1"
     inkscape:current-layer="layer1" /><defs
     id="defs1"><inkscape:path-effect
       effect="spiro"
       id="path-effect48"
       is_visible="true"
       lpeversion="1" /><inkscape:path-effect
       effect="spiro"
       id="path-effect47"
       is_visible="true"
       lpeversion="1" /><inkscape:path-effect
       effect="spiro"
       id="path-effect36"
       is_visible="true"
       lpeversion="1" /><inkscape:path-effect
       effect="spiro"
       id="path-effect30"
       is_visible="true"
       lpeversion="1" /><inkscape:path-effect
       effect="powerstroke"
       id="path-effect29"
       is_visible="true"
       lpeversion="1.3"
       scale_width="1"
       interpolator_type="CentripetalCatmullRom"
       interpolator_beta="0.75"
       start_linecap_type="round"
       end_linecap_type="round"
       offset_points="15.012507,6.8481753"
       linejoin_type="spiro"
       miter_limit="4"
       not_jump="true"
       sort_points="true"
       message="&lt;b&gt;Ctrl + click&lt;/b&gt; on existing node and move it" /><inkscape:path-effect
       effect="simplify"
       id="path-effect28"
       is_visible="true"
       lpeversion="1.3"
       threshold="0.012"
       steps="1"
       smooth_angles="0"
       helper_size="0"
       simplify_individual_paths="false"
       simplify_just_coalesce="false"
       step="1" /><inkscape:path-effect
       effect="spiro"
       id="path-effect27"
       is_visible="true"
       lpeversion="1" /></defs><g
     inkscape:label="Layer 1"
     inkscape:groupmode="layer"
     id="layer1"
     transform="translate(83.942679,-48.424478)"><path
       d="M 130.37873,176.99184 H 77.909754 c -4.410323,0 -7.998319,-3.588 -7.998319,-7.99832 v -52.46898 c 0,-4.41033 3.587996,-7.99832 7.998319,-7.99832 h 52.468986 c 4.41032,0 7.99832,3.58799 7.99832,7.99832 v 52.46898 c 0,4.41032 -3.588,7.99832 -7.99832,7.99832 z m -52.468976,-67.1859 c -3.710575,0 -6.718588,3.00802 -6.718588,6.71859 v 52.46899 c 0,3.71057 3.008016,6.71858 6.718588,6.71858 h 36.753226 c 12.39015,0 22.43435,-10.04419 22.43435,-22.43434 v -36.75322 c 0,-3.71058 -3.00802,-6.71859 -6.71859,-6.71859 H 77.909754 Z"
       fill="#f2f2f2"
       id="path1"
       style="stroke-width:0.264583" /><path
       d="m 83.566408,115.26217 c -2.483313,0 -4.503504,2.02019 -4.503504,4.5035 v 7.04896 c 0,2.48332 2.020191,4.50351 4.503504,4.50351 h 7.048963 c 2.483313,0 4.503505,-2.02019 4.503505,-4.50351 v -7.04896 c 0,-2.48331 -2.020192,-4.5035 -4.503505,-4.5035 z"
       fill="#f2f2f2"
       id="path2"
       style="stroke-width:0.264583" /><path
       d="m 83.566408,135.10592 c -2.483313,0 -4.503504,2.02019 -4.503504,4.5035 v 7.04896 c 0,2.48332 2.020191,4.50351 4.503504,4.50351 h 7.048963 c 2.483313,0 4.503505,-2.02019 4.503505,-4.50351 v -7.04896 c 0,-2.48331 -2.020192,-4.5035 -4.503505,-4.5035 z"
       fill="#f2f2f2"
       id="path3"
       style="stroke-width:0.264583" /><path
       d="m 83.566408,154.94967 c -2.483313,0 -4.503504,2.02019 -4.503504,4.5035 v 7.04896 c 0,2.48332 2.020191,4.50351 4.503504,4.50351 h 7.048963 c 2.483313,0 4.503505,-2.02019 4.503505,-4.50351 v -7.04896 c 0,-2.48331 -2.020192,-4.5035 -4.503505,-4.5035 z"
       fill="#f2f2f2"
       id="path4"
       style="stroke-width:0.264583" /><g
       id="g17"
       transform="matrix(0.26458333,0,0,0.26458333,31.786289,80.309094)"><path
         d="m 213.3715,67.1061 c -11.82633,0 -21.44711,9.62079 -21.44711,21.44711 v 33.56939 c 0,11.82633 9.62079,21.44711 21.44711,21.44711 h 33.56939 c 11.82633,0 21.44711,-9.62079 21.44711,-21.44711 V 88.55321 c 0,-11.82633 -9.62079,-21.44711 -21.44711,-21.44711 z"
         fill="#6c63ff"
         id="path5" /><path
         d="m 323.89034,160.9186 c -11.82633,0 -21.44711,9.62079 -21.44711,21.44711 v 33.56939 c 0,11.82633 9.62079,21.44711 21.44711,21.44711 h 33.56939 c 11.82633,0 21.44711,-9.62079 21.44711,-21.44711 v -33.56939 c 0,-11.82633 -9.62079,-21.44711 -21.44711,-21.44711 z"
         fill="#6c63ff"
         id="path6" /><g
         id="g7"><polygon
           points="266.00379,471.83263 276.06892,471.91748 275.84229,498.80796 269.02267,498.75047 "
           fill="#a0616a"
           id="polygon6" /><path
           d="m 253.99807,509.65233 c -0.0148,1.6785 1.33828,3.06028 3.0229,3.07572 l 13.55914,0.11314 2.37372,-4.81149 0.8718,4.83603 5.11615,0.0464 -1.2919,-17.24842 -1.77998,-0.11842 -7.26029,-0.50048 -2.34232,-0.15686 -0.0411,4.88024 -10.89209,7.38777 c -0.82869,0.56298 -1.32776,1.49545 -1.33604,2.49637 z"
           fill="#2f2e41"
           id="path7" /></g><g
         id="g8"><polygon
           points="300.70157,471.83263 310.76669,471.91748 310.54007,498.80796 303.72044,498.75047 "
           fill="#a0616a"
           id="polygon7" /><path
           d="m 288.69584,509.65233 c -0.0148,1.6785 1.33828,3.06028 3.0229,3.07572 l 13.55914,0.11314 2.37372,-4.81149 0.8718,4.83603 5.11615,0.0464 -1.2919,-17.24842 -1.77998,-0.11842 -7.26029,-0.50048 -2.34232,-0.15686 -0.0411,4.88024 -10.89209,7.38777 c -0.82869,0.56298 -1.32776,1.49545 -1.33604,2.49637 z"
           fill="#2f2e41"
           id="path8" /></g><path
         d="m 249.08109,281.17831 27.64346,0.87295 26.18854,5.81968 c 0,0 -2.61885,3.20082 6.11066,11.93033 0,0 11.63935,20.36886 3.49181,40.15576 l -3.49181,79.14758 c 0,0 10.18085,55.79388 2.40219,73.5511 l -10.28082,0.64255 -17.39634,-73.54982 -8.47914,-79.20944 -4.07377,77.98365 c 0,0 15.58482,53.52659 5.74359,74.77562 l -11.13465,-0.64255 -19.05157,-74.13307 c 0,0 -8.14755,-85.54922 -6.98361,-101.84432 1.16394,-16.29509 9.31148,-35.50002 9.31148,-35.50002 z"
         fill="#2f2e41"
         id="path9" /><g
         id="g11"><path
           d="m 341.91407,156.11273 c -3.77892,0.97845 -6.04918,4.83514 -5.07069,8.61407 0.44834,1.73156 1.50489,3.14028 2.87746,4.07089 l -4.1e-4,0.01 -0.53609,12.98479 9.93665,4.59846 0.7932,-19.98146 -0.0692,0.002 c 0.86159,-1.53494 1.15931,-3.38933 0.68324,-5.22793 -0.97848,-3.77893 -4.83517,-6.04911 -8.61416,-5.0706 z"
           fill="#a0616a"
           id="path10" /><path
           d="m 286.37793,202.45483 c -2.08746,-2.06912 -3.29844,-4.87434 -3.34374,-7.92486 -0.0609,-4.09228 1.98991,-7.80651 5.48559,-9.93539 4.02563,-2.45174 9.05967,-2.20364 12.82498,0.63119 l 31.20286,23.4935 5.55989,-33.84423 11.93675,3.84257 -2.84806,44.07 c -0.19948,3.08263 -1.94154,5.7983 -4.6607,7.26426 -2.71916,1.46596 -5.94507,1.42927 -8.63009,-0.0982 l -45.0929,-25.65511 c -0.90583,-0.51546 -1.7216,-1.13691 -2.43458,-1.84377 z"
           fill="#3f3d56"
           id="path11" /></g><g
         id="g13"><path
           d="m 238.79919,137.1819 c 1.9947,3.35541 0.89159,7.69261 -2.46385,9.68729 -1.5375,0.914 -3.27962,1.17053 -4.90955,0.86503 l -0.007,0.007 -8.76131,9.59852 -10.29404,-3.73037 13.50476,-14.7482 0.0477,0.0502 c 0.46883,-1.69663 1.563,-3.22314 3.19555,-4.19363 3.35544,-1.99468 7.69258,-0.89152 9.68729,2.46398 z"
           fill="#a0616a"
           id="path12" /><path
           d="m 242.58351,208.7873 -50.08512,-13.52903 c -2.98215,-0.8057 -5.29885,-3.05086 -6.19773,-6.00635 -0.89888,-2.95549 -0.22401,-6.11051 1.80467,-8.44008 l 29.00517,-33.30129 11.18221,5.67535 -19.87987,27.94879 38.69929,5.28473 c 4.66979,0.63785 8.41937,4.00591 9.55199,8.58126 0.98359,3.97296 -0.17507,8.05448 -3.09949,10.91773 -2.17991,2.13441 -5.01491,3.27394 -7.95408,3.27362 -1.00399,0 -2.02084,-0.13303 -3.02702,-0.40473 z"
           fill="#3f3d56"
           id="path13" /></g><path
         d="m 313.98891,292.82223 -70.0381,3.21276 c -1.92358,-2.92109 -1.40264,-7.31347 1.29122,-12.81367 10.17125,-20.76721 2.44654,-60.05462 -2.74985,-80.51179 -1.45798,-5.73976 2.4559,-11.44589 8.34855,-12.03515 l 6.60367,-0.66037 6.10424,-18.63399 h 21.37875 l 8.86923,10.13266 15.05189,9.14389 c -2.73972,28.22064 -14.41356,68.0706 2.2172,88.05507 3.63737,4.37087 4.66873,9.09743 2.92321,14.1106 z"
         fill="#3f3d56"
         id="path14" /><circle
         cx="271.51868"
         cy="150.9868"
         r="20.82357"
         fill="#a0616a"
         id="circle14" /><path
         d="m 295.08231,137.65762 c 2.8972,-10.56287 -28.67928,-19.62073 -34.81549,-11.11444 -0.85326,-1.20934 -4.00655,-1.9439 -5.45336,-1.57293 -1.44681,0.37097 -2.66357,1.29841 -3.85072,2.19619 -1.6323,1.2539 -3.32392,2.55231 -4.32553,4.35524 -1.00909,1.79551 -1.16487,4.24398 0.19287,5.80205 1.07584,1.23904 2.9663,7.82332 4.58375,8.14978 1.12773,0.23 2.07745,0.41549 2.89358,0.54904 0.72714,-1.06098 2.58132,-2.39375 2.44778,-3.67731 1.09807,0.7271 0.69691,2.00635 0.47552,3.31376 -0.73718,4.35363 -17.34626,38.05525 -7.83345,28.12415 0.9423,0.55647 2.10715,1.07583 3.45008,1.55065 2.27775,-3.43523 4.14747,-7.48625 5.37914,-11.7228 l 0.009,0.0783 c 0.42405,3.68168 3.11456,6.70263 6.67421,7.73388 14.27942,4.13681 25.82989,-1.93337 29.80326,-12.87997 -1.45451,-2.95297 -2.08826,-2.63223 -1.95797,-2.72004 1.81577,-1.2238 4.31135,-0.42345 5.09179,1.62242 0.2301,0.60321 0.43924,1.1182 0.62043,1.50569 2.07002,-7.40469 4.53201,-6.33593 -3.38458,-21.29362 z"
         fill="#2f2e41"
         id="path15" /><path
         d="m 285.23139,129.99395 -1.4586,-7.45697 c -0.12261,-0.62684 -0.23896,-1.30695 0.0437,-1.87973 0.36317,-0.73595 1.29668,-1.04096 2.10893,-0.92366 0.81225,0.11729 1.41978,0.85923 2.22791,1.0021 2.80975,0.49673 6.52379,-2.27858 7.53053,4.7424 0.41975,2.92732 5.09082,3.23652 6.65079,5.74883 1.55997,2.51232 1.75148,6.13862 -0.37749,8.19111 -1.70031,1.63923 -4.43095,1.82843 -6.63933,0.99107 -2.20838,-0.83736 -3.98071,-2.52874 -5.52887,-4.31237 -1.54816,-1.78363 -2.9501,-3.71374 -4.73583,-5.25948"
         fill="#2f2e41"
         id="path16" /><path
         d="m 296.19459,141.33592 c -5.69794,-0.79597 -9.5818,-2.86826 -11.54365,-6.15883 -2.5677,-4.30742 -0.84774,-9.05031 -0.77338,-9.25017 l 1.20447,0.44772 c -0.016,0.0436 -1.57626,4.38523 0.67957,8.15551 1.75478,2.9329 5.32489,4.79466 10.61057,5.53322 z"
         fill="#6c63ff"
         id="path17" /></g><path
       d="m 117.22919,96.385791 c -4.43208,0 -8.03834,-3.606266 -8.03834,-8.038349 0,-4.432083 3.60626,-8.038348 8.03834,-8.038348 4.43209,0 8.03835,3.606265 8.03835,8.038348 0,4.432083 -3.60626,8.038349 -8.03835,8.038349 z m 0,-12.861356 c -2.65956,0 -4.823,2.163445 -4.823,4.823007 0,2.659563 2.16344,4.823008 4.823,4.823008 2.65957,0 4.82301,-2.163445 4.82301,-4.823008 0,-2.659562 -2.16344,-4.823007 -4.82301,-4.823007 z"
       fill="#6c63ff"
       id="path18"
       style="stroke-width:0.264583" /><path
       d="m 129.59679,101.84857 c -0.39407,0 -0.78892,-0.14365 -1.09899,-0.43489 l -7.54459,-7.070449 c -0.64841,-0.6068 -0.68138,-1.624155 -0.0738,-2.271776 0.60602,-0.649975 1.62337,-0.682159 2.27178,-0.07379 l 7.54458,7.07045 c 0.64841,0.6068 0.68138,1.624155 0.0738,2.271775 -0.31635,0.33833 -0.74417,0.50868 -1.17278,0.50868 z"
       fill="#6c63ff"
       id="path19"
       style="stroke-width:0.264583" /><g
       id="g21"
       transform="matrix(0.26458333,0,0,0.26458333,31.786289,80.309094)"><path
         d="m 498.55135,498.12587 c 2.06592,0.12937 3.20768,-2.43737 1.64468,-3.93333 l -0.1555,-0.61819 c 0.0205,-0.0495 0.041,-0.099 0.0618,-0.14839 2.08924,-4.9818 9.16992,-4.94742 11.24139,0.0418 1.83859,4.42817 4.17942,8.86389 4.75579,13.54594 0.25838,2.0668 0.14213,4.17236 -0.31648,6.20047 4.30807,-9.41059 6.57515,-19.68661 6.57515,-30.02077 0,-2.59652 -0.14213,-5.19301 -0.43275,-7.78295 -0.239,-2.11854 -0.56839,-4.2241 -0.99471,-6.31034 -2.30575,-11.2772 -7.29852,-22.01825 -14.50012,-30.98962 -3.46197,-1.89248 -6.34906,-4.85065 -8.09295,-8.39652 -0.62649,-1.27891 -1.11739,-2.65462 -1.34991,-4.05618 0.39398,0.0517 1.48556,-5.94866 1.18841,-6.3168 0.54906,-0.83317 1.53178,-1.24733 2.13144,-2.06034 2.98232,-4.04341 7.0912,-3.33741 9.23621,2.15727 4.58224,2.31266 4.62659,6.14806 1.81495,9.83683 -1.78878,2.34682 -2.03456,5.52233 -3.60408,8.03478 0.16151,0.20671 0.32944,0.40695 0.4909,0.61366 2.96106,3.79788 5.52208,7.88002 7.68104,12.16859 -0.61017,-4.76621 0.29067,-10.50822 1.82641,-14.20959 1.74819,-4.21732 5.02491,-7.76915 7.91045,-11.41501 3.46601,-4.37924 10.57337,-2.46806 11.18401,3.08332 0.006,0.0537 0.0117,0.10745 0.0173,0.1612 -0.4286,0.24178 -0.84849,0.49867 -1.25864,0.76992 -2.33949,1.54723 -1.53096,5.17386 1.24107,5.60174 l 0.0628,0.01 c -0.15503,1.54366 -0.41984,3.07444 -0.80734,4.57937 3.70179,14.31579 -4.29011,19.5299 -15.70147,19.76412 -0.25191,0.12916 -0.49738,0.25832 -0.74929,0.38109 1.15617,3.25525 2.07982,6.59447 2.76441,9.97891 0.61359,2.99043 1.03991,6.01317 1.27885,9.04888 0.29715,3.83006 0.27129,7.67959 -0.0517,11.50323 l 0.0194,-0.13562 c 0.82024,-4.21115 3.10671,-8.14462 6.4266,-10.87028 4.94561,-4.06264 11.93282,-5.55869 17.26826,-8.82425 2.56833,-1.57196 5.85945,0.45945 5.41121,3.43708 l -0.0218,0.14261 c -0.79443,0.32289 -1.56947,0.69755 -2.31871,1.11733 -0.4286,0.24184 -0.84848,0.49867 -1.25864,0.76992 -2.33949,1.54729 -1.53096,5.17392 1.24107,5.6018 l 0.0628,0.01 c 0.0452,0.006 0.084,0.0129 0.12911,0.0194 -1.36282,3.23581 -3.26168,6.23922 -5.63854,8.82922 -2.31463,12.49713 -12.25603,13.68282 -22.89022,10.04354 h -0.006 c -1.16259,5.06378 -2.86128,10.01127 -5.0444,14.72621 h -18.02019 c -0.0646,-0.20022 -0.12274,-0.40692 -0.18089,-0.60717 1.6664,0.10341 3.34571,0.006 4.98629,-0.29702 -1.33701,-1.64059 -2.67396,-3.29409 -4.01097,-4.93462 -0.0323,-0.0323 -0.0582,-0.0646 -0.084,-0.0969 -0.67817,-0.8396 -1.36282,-1.67283 -2.04099,-2.51246 l -3.6e-4,-10e-4 c -0.0424,-2.57755 0.26652,-5.14662 0.87876,-7.63984 l 5.7e-4,-3.5e-4 z"
         fill="#f2f2f2"
         id="path20" /><path
         d="m 0,514.26882 c 0,0.66003 0.53003,1.19 1.19006,1.19 h 550.28998 c 0.65997,0 1.19,-0.52997 1.19,-1.19 0,-0.65997 -0.53003,-1.19 -1.19,-1.19 H 1.19006 c -0.66003,0 -1.19006,0.53003 -1.19006,1.19 z"
         fill="#cccccc"
         id="path21" /></g><path
       d="m -58.283389,83.756923 h -20.79625 c -2.68023,0 -4.86304,-2.180171 -4.86304,-4.863041 v -20.79625 c 0,-2.68023 2.18017,-4.86305 4.86304,-4.86305 h 20.79625 c 2.68023,0 4.86304,2.18017 4.86304,4.86305 v 20.79625 c 0,2.68022 -2.18016,4.86304 -4.86304,4.863041 z m -20.79625,-29.990521 c -2.38919,0 -4.33387,1.944681 -4.33387,4.33387 v 20.796251 c 0,2.38919 1.94468,4.333879 4.33387,4.333879 h 20.79625 c 2.38919,0 4.33388,-1.94469 4.33388,-4.333879 v -20.79625 c 0,-2.38919 -1.94469,-4.33387 -4.33388,-4.33387 z"
       fill="#cccccc"
       id="path9-1"
       style="stroke-width:0.264583" /><path
       d="m -13.124307,83.756923 h -20.796252 c -2.68022,0 -4.86304,-2.180171 -4.86304,-4.863041 v -20.79625 c 0,-2.68023 2.18017,-4.86305 4.86304,-4.86305 h 20.796252 c 2.68023,0 4.8630498,2.18017 4.8630498,4.86305 v 20.79625 c 0,2.68022 -2.1801698,4.86304 -4.8630498,4.863041 z m -20.796252,-29.99317 c -2.38918,0 -4.33387,1.94469 -4.33387,4.33388 v 20.79625 c 0,2.38918 1.94469,4.33387 4.33387,4.33387 h 20.796252 c 2.38919,0 4.3338798,-1.944691 4.3338798,-4.33387 v -20.79625 c 0,-2.38919 -1.9446898,-4.33388 -4.3338798,-4.33388 z"
       fill="#cccccc"
       id="path10-2"
       style="stroke-width:0.264583" /><path
       d="m -13.124307,140.39627 h -20.796252 c -2.68022,0 -4.86304,-2.18017 -4.86304,-4.86304 v -20.79625 c 0,-2.68023 2.18017,-4.86304 4.86304,-4.86304 h 20.796252 c 2.68023,0 4.8630498,2.18016 4.8630498,4.86304 v 20.79625 c 0,2.68023 -2.1801698,4.86304 -4.8630498,4.86304 z M -33.920559,110.4031 c -2.38918,0 -4.33387,1.94469 -4.33387,4.33388 v 20.79625 c 0,2.38919 1.94469,4.33387 4.33387,4.33387 h 20.796252 c 2.38919,0 4.3338798,-1.94468 4.3338798,-4.33387 v -20.79625 c 0,-2.38919 -1.9446898,-4.33388 -4.3338798,-4.33388 z"
       fill="#cccccc"
       id="path11-7"
       style="stroke-width:0.264583" /><path
       d="m -58.283389,140.39627 h -20.79625 c -2.68023,0 -4.86304,-2.18017 -4.86304,-4.86304 v -20.79625 c 0,-2.68023 2.18017,-4.86304 4.86304,-4.86304 h 20.79625 c 2.68023,0 4.86304,2.18016 4.86304,4.86304 v 20.79625 c 0,2.68023 -2.18016,4.86304 -4.86304,4.86304 z m -20.79625,-29.99317 c -2.38919,0 -4.33387,1.94469 -4.33387,4.33388 v 20.79625 c 0,2.38919 1.94468,4.33387 4.33387,4.33387 h 20.79625 c 2.38919,0 4.33388,-1.94468 4.33388,-4.33387 v -20.79625 c 0,-2.38919 -1.94469,-4.33388 -4.33388,-4.33388 z"
       fill="#cccccc"
       id="path12-0"
       style="stroke-width:0.264583" /><circle
       cx="-54.566002"
       cy="111.22861"
       r="6.1674371"
       fill="#6c63ff"
       id="circle12"
       style="stroke-width:0.264583" /><path
       d="m 32.034783,83.756923 h -20.79625 c -2.6802302,0 -4.8630402,-2.180171 -4.8630402,-4.863041 v -20.79625 c 0,-2.68023 2.18016,-4.86305 4.8630402,-4.86305 h 20.79625 c 2.68023,0 4.86304,2.18017 4.86304,4.86305 v 20.79625 c 0,2.68022 -2.18017,4.86304 -4.86304,4.863041 z m -20.79625,-29.99317 c -2.3891902,0 -4.3338802,1.94469 -4.3338802,4.33388 v 20.79625 c 0,2.38918 1.94469,4.33387 4.3338802,4.33387 h 20.79625 c 2.38918,0 4.33387,-1.944691 4.33387,-4.33387 v -20.79625 c 0,-2.38919 -1.94469,-4.33388 -4.33387,-4.33388 z"
       fill="#cccccc"
       id="path13-9"
       style="stroke-width:0.264583" /><circle
       cx="36.63324"
       cy="54.591915"
       r="6.1674371"
       fill="#6c63ff"
       id="circle13"
       style="stroke-width:0.264583" /><path
       d="m -63.249619,90.106922 h -12.40631 c -0.97102,0 -1.75948,-0.788459 -1.75948,-1.75948 0,-0.97102 0.78846,-1.759479 1.75948,-1.759479 h 12.40631 c 0.97102,0 1.75948,0.788459 1.75948,1.759479 0,0.971021 -0.78846,1.75948 -1.75948,1.75948 z"
       fill="#e6e6e6"
       id="path14-3"
       style="stroke-width:0.264583" /><path
       d="m -17.320597,90.106922 h -12.40631 c -0.971022,0 -1.759482,-0.788459 -1.759482,-1.75948 0,-0.97102 0.78846,-1.759479 1.759482,-1.759479 h 12.40631 c 0.97102,0 1.75948,0.788459 1.75948,1.759479 0,0.971021 -0.78846,1.75948 -1.75948,1.75948 z"
       fill="#e6e6e6"
       id="path15-6"
       style="stroke-width:0.264583" /><path
       d="m 28.611073,90.106922 h -12.40631 c -0.97102,0 -1.75948,-0.788459 -1.75948,-1.75948 0,-0.97102 0.78846,-1.759479 1.75948,-1.759479 h 12.40631 c 0.97102,0 1.75948,0.788459 1.75948,1.759479 0,0.971021 -0.78846,1.75948 -1.75948,1.75948 z"
       fill="#e6e6e6"
       id="path16-0"
       style="stroke-width:0.264583" /><path
       d="m 32.034783,140.92544 h -20.79625 c -2.6802302,0 -4.8630402,-2.18017 -4.8630402,-4.86304 v -20.79625 c 0,-2.68023 2.18016,-4.86305 4.8630402,-4.86305 h 20.79625 c 2.68023,0 4.86304,2.18017 4.86304,4.86305 v 20.79625 c 0,2.68022 -2.18017,4.86304 -4.86304,4.86304 z m -20.79625,-29.99317 c -2.3891902,0 -4.3338802,1.94469 -4.3338802,4.33388 v 20.79625 c 0,2.38918 1.94469,4.33387 4.3338802,4.33387 h 20.79625 c 2.38918,0 4.33387,-1.94469 4.33387,-4.33387 v -20.79625 c 0,-2.38919 -1.94469,-4.33388 -4.33387,-4.33388 z"
       fill="#cccccc"
       id="path17-6"
       style="stroke-width:0.264583" /><path
       d="m 28.611073,147.27279 h -12.40631 c -0.97102,0 -1.75948,-0.78846 -1.75948,-1.75948 0,-0.97102 0.78846,-1.75948 1.75948,-1.75948 h 12.40631 c 0.97102,0 1.75948,0.78846 1.75948,1.75948 0,0.97102 -0.78846,1.75948 -1.75948,1.75948 z"
       fill="#e6e6e6"
       id="path18-2"
       style="stroke-width:0.264583" /><path
       d="M 77.196508,83.756923 H 56.400263 c -2.68023,0 -4.86305,-2.180171 -4.86305,-4.863041 v -20.79625 c 0,-2.68023 2.18017,-4.86305 4.86305,-4.86305 h 20.796245 c 2.68023,0 4.863042,2.18017 4.863042,4.86305 v 20.79625 c 0,2.68022 -2.180167,4.86304 -4.863042,4.863041 z M 56.400263,53.763753 c -2.38919,0 -4.33388,1.94469 -4.33388,4.33388 v 20.79625 c 0,2.38918 1.94469,4.33387 4.33388,4.33387 h 20.796245 c 2.389188,0 4.333875,-1.944691 4.333875,-4.33387 v -20.79625 c 0,-2.38919 -1.944687,-4.33388 -4.333875,-4.33388 z"
       fill="#cccccc"
       id="path19-6"
       style="stroke-width:0.264583" /><path
       d="M 73.770154,90.106922 H 61.363842 c -0.971021,0 -1.759479,-0.788459 -1.759479,-1.75948 0,-0.97102 0.788458,-1.759479 1.759479,-1.759479 h 12.406312 c 0.971021,0 1.759479,0.788459 1.759479,1.759479 0,0.971021 -0.788458,1.75948 -1.759479,1.75948 z"
       fill="#e6e6e6"
       id="path20-1"
       style="stroke-width:0.264583" /><path
       d="m -63.249619,146.74362 h -12.40631 c -0.97102,0 -1.75948,-0.78845 -1.75948,-1.75947 0,-0.97103 0.78846,-1.75948 1.75948,-1.75948 h 12.40631 c 0.97102,0 1.75948,0.78845 1.75948,1.75948 0,0.97102 -0.78846,1.75947 -1.75948,1.75947 z"
       fill="#e6e6e6"
       id="path21-8"
       style="stroke-width:0.264583" /><path
       d="m -17.320597,146.74362 h -12.40631 c -0.971022,0 -1.759482,-0.78845 -1.759482,-1.75947 0,-0.97103 0.78846,-1.75948 1.759482,-1.75948 h 12.40631 c 0.97102,0 1.75948,0.78845 1.75948,1.75948 0,0.97102 -0.78846,1.75947 -1.75948,1.75947 z"
       fill="#e6e6e6"
       id="path22"
       style="stroke-width:0.264583" /><g
       id="g24"
       transform="matrix(0.26458333,0,0,0.26458333,-83.942679,27.710233)"><circle
         cx="297.73999"
         cy="513.91998"
         r="5.7199998"
         fill="#6c63ff"
         id="circle22" /><circle
         cx="314.70001"
         cy="513.91998"
         r="5.7199998"
         fill="#e6e6e6"
         id="circle23" /><circle
         cx="331.66"
         cy="513.91998"
         r="5.7199998"
         fill="#e6e6e6"
         id="circle24" /></g><circle
       id="path47"
       style="fill:#000000;stroke:none;stroke-width:0.264583"
       cx="28.292938"
       cy="186.04523"
       r="0.39687499" /></g></svg>
